<?xml version="1.0" encoding="UTF-8"?>
<svg version="1.1" xmlns="http://www.w3.org/2000/svg" viewBox="0 0 800 800" width="20%" height="20%">
<path d="M0 0 C1.37204694 4.11614081 0.05469729 7.11473079 -1.1484375 11.125 C-1.39164734 11.95761856 -1.63485718 12.79023712 -1.88543701 13.64808655 C-2.70449441 16.43538122 -3.5384701 19.21790211 -4.375 22 C-4.66421326 22.96904266 -4.95342651 23.93808533 -5.25140381 24.93649292 C-20.86914631 77.17549716 -39.21844288 128.59290814 -60 179 C-60.7439502 180.81927002 -60.7439502 180.81927002 -61.50292969 182.67529297 C-72.4409642 209.41388952 -84.27427442 235.74934164 -97.125 261.625 C-97.43097107 262.244888 -97.73694214 262.864776 -98.05218506 263.50344849 C-106.43194059 280.43194059 -106.43194059 280.43194059 -112 286 C-114.56062317 286.46829224 -114.56062317 286.46829224 -117.83911133 286.77783203 C-119.06410843 286.89780548 -120.28910553 287.01777893 -121.55122375 287.14138794 C-122.89480279 287.26378734 -124.23840592 287.38592235 -125.58203125 287.5078125 C-126.957318 287.63876292 -128.33253611 287.77043598 -129.70768738 287.90280151 C-132.59313782 288.17873062 -135.47905071 288.44884798 -138.36547852 288.71435547 C-142.05827054 289.05407651 -145.75005581 289.40349727 -149.44157887 289.75671577 C-152.96725467 290.0936944 -156.49336571 290.42600406 -160.01953125 290.7578125 C-160.68969584 290.82121952 -161.35986042 290.88462654 -162.05033302 290.94995499 C-163.95755233 291.12950251 -165.86512298 291.30530588 -167.77270508 291.48095703 C-168.85699295 291.58151398 -169.94128082 291.68207092 -171.0584259 291.78567505 C-173.71986883 291.97958947 -176.33298743 292.04098855 -179 292 C-180.30195009 288.09414972 -179.13838155 285.70880812 -177.82421875 281.9921875 C-177.58379349 281.28796661 -177.34336823 280.58374573 -177.09565735 279.85818481 C-176.57393077 278.33099099 -176.04848229 276.80506478 -175.51977539 275.28027344 C-174.09798084 271.17129134 -172.71199066 267.05026036 -171.32421875 262.9296875 C-171.04053436 262.08879578 -170.75684998 261.24790405 -170.46456909 260.38153076 C-146.38011032 188.76384509 -129.39926706 114.21748325 -115.62109375 40.01171875 C-115.41234116 38.8956424 -115.41234116 38.8956424 -115.19937134 37.75701904 C-114.47650081 33.82921308 -113.82790978 29.90143064 -113.26220703 25.94775391 C-113.13959 25.12209427 -113.01697296 24.29643463 -112.89064026 23.445755 C-112.65975153 21.86990993 -112.44304558 20.29189782 -112.24302673 18.71183777 C-111.4746729 13.52886123 -111.4746729 13.52886123 -109.52383423 11.35531616 C-105.72414545 9.31485742 -101.94641982 9.13778287 -97.69262695 8.74145508 C-96.75064957 8.64348129 -95.80867218 8.54550751 -94.83815002 8.44456482 C-91.72265143 8.12378001 -88.60566236 7.82142737 -85.48828125 7.51953125 C-83.31827453 7.30060647 -81.14836893 7.08067728 -78.9785614 6.85978699 C-74.42728682 6.39910345 -69.87528171 5.94685934 -65.32250977 5.5012207 C-59.50203401 4.93135767 -53.68319256 4.34653676 -47.86477375 3.75607777 C-43.38090437 3.30173347 -38.8965387 2.8524671 -34.41197777 2.4050045 C-32.26740004 2.19097509 -30.12290932 1.97607206 -27.9785099 1.76026344 C-24.97089542 1.4589465 -21.96274338 1.16374268 -18.9543457 0.87036133 C-18.07661499 0.78156708 -17.19888428 0.69277283 -16.29455566 0.60128784 C-10.83649824 0.07722942 -5.48351349 -0.07692139 0 0 Z " fill="#000000" transform="translate(295,315)"/>
<path d="M0 0 C1.37204694 4.11614081 0.05469729 7.11473079 -1.1484375 11.125 C-1.39164734 11.95761856 -1.63485718 12.79023712 -1.88543701 13.64808655 C-2.70449441 16.43538122 -3.5384701 19.21790211 -4.375 22 C-4.66421326 22.96904266 -4.95342651 23.93808533 -5.25140381 24.93649292 C-20.86914631 77.17549716 -39.21844288 128.59290814 -60 179 C-60.7439502 180.81927002 -60.7439502 180.81927002 -61.50292969 182.67529297 C-72.4409642 209.41388952 -84.27427442 235.74934164 -97.125 261.625 C-97.43097107 262.244888 -97.73694214 262.864776 -98.05218506 263.50344849 C-106.43194059 280.43194059 -106.43194059 280.43194059 -112 286 C-114.56062317 286.46829224 -114.56062317 286.46829224 -117.83911133 286.77783203 C-119.06410843 286.89780548 -120.28910553 287.01777893 -121.55122375 287.14138794 C-122.89480279 287.26378734 -124.23840592 287.38592235 -125.58203125 287.5078125 C-126.957318 287.63876292 -128.33253611 287.77043598 -129.70768738 287.90280151 C-132.59313782 288.17873062 -135.47905071 288.44884798 -138.36547852 288.71435547 C-142.05827054 289.05407651 -145.75005581 289.40349727 -149.44157887 289.75671577 C-152.96725467 290.0936944 -156.49336571 290.42600406 -160.01953125 290.7578125 C-160.68969584 290.82121952 -161.35986042 290.88462654 -162.05033302 290.94995499 C-163.95755233 291.12950251 -165.86512298 291.30530588 -167.77270508 291.48095703 C-168.85699295 291.58151398 -169.94128082 291.68207092 -171.0584259 291.78567505 C-173.71986883 291.97958947 -176.33298743 292.04098855 -179 292 C-180.30195009 288.09414972 -179.13838155 285.70880812 -177.82421875 281.9921875 C-177.58379349 281.28796661 -177.34336823 280.58374573 -177.09565735 279.85818481 C-176.57393077 278.33099099 -176.04848229 276.80506478 -175.51977539 275.28027344 C-174.09798084 271.17129134 -172.71199066 267.05026036 -171.32421875 262.9296875 C-171.04053436 262.08879578 -170.75684998 261.24790405 -170.46456909 260.38153076 C-146.38011032 188.76384509 -129.39926706 114.21748325 -115.62109375 40.01171875 C-115.41234116 38.8956424 -115.41234116 38.8956424 -115.19937134 37.75701904 C-114.47650081 33.82921308 -113.82790978 29.90143064 -113.26220703 25.94775391 C-113.13959 25.12209427 -113.01697296 24.29643463 -112.89064026 23.445755 C-112.65975153 21.86990993 -112.44304558 20.29189782 -112.24302673 18.71183777 C-111.4746729 13.52886123 -111.4746729 13.52886123 -109.52383423 11.35531616 C-105.72414545 9.31485742 -101.94641982 9.13778287 -97.69262695 8.74145508 C-96.75064957 8.64348129 -95.80867218 8.54550751 -94.83815002 8.44456482 C-91.72265143 8.12378001 -88.60566236 7.82142737 -85.48828125 7.51953125 C-83.31827453 7.30060647 -81.14836893 7.08067728 -78.9785614 6.85978699 C-74.42728682 6.39910345 -69.87528171 5.94685934 -65.32250977 5.5012207 C-59.50203401 4.93135767 -53.68319256 4.34653676 -47.86477375 3.75607777 C-43.38090437 3.30173347 -38.8965387 2.8524671 -34.41197777 2.4050045 C-32.26740004 2.19097509 -30.12290932 1.97607206 -27.9785099 1.76026344 C-24.97089542 1.4589465 -21.96274338 1.16374268 -18.9543457 0.87036133 C-18.07661499 0.78156708 -17.19888428 0.69277283 -16.29455566 0.60128784 C-10.83649824 0.07722942 -5.48351349 -0.07692139 0 0 Z " fill="#000000" transform="translate(708,275)"/>
<path d="M0 0 C1.37204694 4.11614081 0.05469729 7.11473079 -1.1484375 11.125 C-1.39164734 11.95761856 -1.63485718 12.79023712 -1.88543701 13.64808655 C-2.70449441 16.43538122 -3.5384701 19.21790211 -4.375 22 C-4.66421326 22.96904266 -4.95342651 23.93808533 -5.25140381 24.93649292 C-20.86914631 77.17549716 -39.21844288 128.59290814 -60 179 C-60.7439502 180.81927002 -60.7439502 180.81927002 -61.50292969 182.67529297 C-72.4409642 209.41388952 -84.27427442 235.74934164 -97.125 261.625 C-97.43097107 262.244888 -97.73694214 262.864776 -98.05218506 263.50344849 C-106.43194059 280.43194059 -106.43194059 280.43194059 -112 286 C-114.56062317 286.46829224 -114.56062317 286.46829224 -117.83911133 286.77783203 C-119.06410843 286.89780548 -120.28910553 287.01777893 -121.55122375 287.14138794 C-122.89480279 287.26378734 -124.23840592 287.38592235 -125.58203125 287.5078125 C-126.957318 287.63876292 -128.33253611 287.77043598 -129.70768738 287.90280151 C-132.59313782 288.17873062 -135.47905071 288.44884798 -138.36547852 288.71435547 C-142.05827054 289.05407651 -145.75005581 289.40349727 -149.44157887 289.75671577 C-152.96725467 290.0936944 -156.49336571 290.42600406 -160.01953125 290.7578125 C-160.68969584 290.82121952 -161.35986042 290.88462654 -162.05033302 290.94995499 C-163.95755233 291.12950251 -165.86512298 291.30530588 -167.77270508 291.48095703 C-168.85699295 291.58151398 -169.94128082 291.68207092 -171.0584259 291.78567505 C-173.71986883 291.97958947 -176.33298743 292.04098855 -179 292 C-180.30195009 288.09414972 -179.13838155 285.70880812 -177.82421875 281.9921875 C-177.58379349 281.28796661 -177.34336823 280.58374573 -177.09565735 279.85818481 C-176.57393077 278.33099099 -176.04848229 276.80506478 -175.51977539 275.28027344 C-174.09798084 271.17129134 -172.71199066 267.05026036 -171.32421875 262.9296875 C-171.04053436 262.08879578 -170.75684998 261.24790405 -170.46456909 260.38153076 C-146.38011032 188.76384509 -129.39926706 114.21748325 -115.62109375 40.01171875 C-115.41234116 38.8956424 -115.41234116 38.8956424 -115.19937134 37.75701904 C-114.47650081 33.82921308 -113.82790978 29.90143064 -113.26220703 25.94775391 C-113.13959 25.12209427 -113.01697296 24.29643463 -112.89064026 23.445755 C-112.65975153 21.86990993 -112.44304558 20.29189782 -112.24302673 18.71183777 C-111.4746729 13.52886123 -111.4746729 13.52886123 -109.52383423 11.35531616 C-105.72414545 9.31485742 -101.94641982 9.13778287 -97.69262695 8.74145508 C-96.75064957 8.64348129 -95.80867218 8.54550751 -94.83815002 8.44456482 C-91.72265143 8.12378001 -88.60566236 7.82142737 -85.48828125 7.51953125 C-83.31827453 7.30060647 -81.14836893 7.08067728 -78.9785614 6.85978699 C-74.42728682 6.39910345 -69.87528171 5.94685934 -65.32250977 5.5012207 C-59.50203401 4.93135767 -53.68319256 4.34653676 -47.86477375 3.75607777 C-43.38090437 3.30173347 -38.8965387 2.8524671 -34.41197777 2.4050045 C-32.26740004 2.19097509 -30.12290932 1.97607206 -27.9785099 1.76026344 C-24.97089542 1.4589465 -21.96274338 1.16374268 -18.9543457 0.87036133 C-18.07661499 0.78156708 -17.19888428 0.69277283 -16.29455566 0.60128784 C-10.83649824 0.07722942 -5.48351349 -0.07692139 0 0 Z " fill="#000000" transform="translate(523,179)"/>
</svg>
